:FULLY-SPECIFIED
:FORCE-ALL-JOINTS-BE-3DOF
:DEGREES
374
root 6.19746 16.5054 -15.8996 9.4017 -17.1141 -6.15333
lfemur -45.9871 23.0017 -13.3968
ltibia 68.5634 0 0
lfoot -10.8911 -1.63798 0
ltoes 13.8469 0 0
rfemur -24.6271 -3.44821 31.2909
rtibia 41.7823 0 0
rfoot -21.4762 0.609309 0
rtoes 17.9347 0 0
lowerback 5.31623 1.5616 3.47828
upperback 2.66205 2.23165 1.02254
thorax -0.145895 1.13482 -1.01381
lowerneck -7.90151 -1.24432 2.95474
upperneck -0.71943 -1.9709 2.1151
head 1.08635 -0.951962 0.0968705
lclavicle -3.48188e-14 -4.96657e-15 0
lhumerus -40.1843 -23.1693 94.8425
lradius 56.5081 0 0
lwrist 19.4424 0 0
lhand -21.7822 2.75594 0
lfingers 7.12502 0 0
lthumb 4.61928 32.6927 0
rclavicle -3.48188e-14 -4.96657e-15 0
rhumerus -37.3611 12.9055 -93.5234
rradius 60.8397 0 0
rwrist 9.43202 0 0
rhand -8.90204 -19.1546 0
rfingers 7.12502 0 0
rthumb 17.0411 -768.432 0
375
root 6.15055 16.5143 -15.7647 9.46337 -17.9229 -6.29847
lfemur -46.3828 22.7155 -13.7801
ltibia 65.4191 0 0
lfoot -10.3372 -0.897444 0
ltoes 13.7168 0 0
rfemur -23.7226 -2.73234 31.3167
rtibia 41.2966 0 0
rfoot -21.7225 0.617014 0
rtoes 18.0584 0 0
lowerback 5.2865 1.74989 3.58088
upperback 2.63415 2.48553 0.954833
thorax -0.138884 1.26263 -1.15218
lowerneck -7.80949 -1.16083 3.1075
upperneck -0.622142 -1.87066 2.04517
head 1.09992 -0.901919 0.0532146
lclavicle -2.85977e-14 -5.04669e-15 0
lhumerus -40.0168 -23.1109 94.4809
lradius 56.1286 0 0
lwrist 18.9453 0 0
lhand -22.0904 2.49157 0
lfingers 7.12502 0 0
lthumb 4.32177 32.4356 0
rclavicle -2.85977e-14 -5.04669e-15 0
rhumerus -37.4679 13.2179 -93.6389
rradius 60.1538 0 0
rwrist 9.66484 0 0
rhand -9.25366 -18.9001 0
rfingers 7.12502 0 0
rthumb 16.7025 -768.205 0
376
root 6.10281 16.5235 -15.627 9.50999 -18.724 -6.43562
lfemur -46.5757 22.3321 -14.051
ltibia 62.0784 0 0
lfoot -9.70128 -0.108084 0
ltoes 13.5736 0 0
rfemur -22.7848 -2.04114 31.3307
rtibia 40.7935 0 0
rfoot -21.952 0.626402 0
rtoes 18.1306 0 0
lowerback 5.23596 1.94277 3.66564
upperback 2.59978 2.7442 0.887046
thorax -0.126153 1.3927 -1.28026
lowerneck -7.70674 -1.08549 3.25561
upperneck -0.511895 -1.78078 1.98684
head 1.11639 -0.856577 0.0135827
lclavicle -2.0824e-14 -5.12175e-15 0
lhumerus -39.8829 -23.0176 94.1416
lradius 55.7525 0 0
lwrist 18.4281 0 0
lhand -22.2975 2.25926 0
lfingers 7.12502 0 0
lthumb 4.12171 32.2068 0
rclavicle -2.0824e-14 -5.12175e-15 0
rhumerus -37.6047 13.5055 -93.7529
rradius 59.5093 0 0
rwrist 9.84699 0 0
rhand -9.7303 -18.7235 0
rfingers 7.12502 0 0
rthumb 16.2435 -768.065 0
377
root 6.0544 16.5321 -15.4869 9.53993 -19.4969 -6.56756
lfemur -46.5962 21.803 -14.1845
ltibia 58.7025 0 0
lfoot -9.06226 0.760534 0
ltoes 13.4481 0 0
rfemur -21.8297 -1.40943 31.3422
rtibia 40.3 0 0
rfoot -22.1725 0.632879 0
rtoes 18.1577 0 0
lowerback 5.16797 2.12958 3.74299
upperback 2.56058 2.9939 0.821302
thorax -0.108547 1.51825 -1.40082
lowerneck -7.59665 -1.01616 3.40057
upperneck -0.392467 -1.69846 1.93677
head 1.13488 -0.814622 -0.0232424
lclavicle -1.19237e-14 -5.0974e-15 0
lhumerus -39.7901 -22.9028 93.8308
lradius 55.3954 0 0
lwrist 17.9493 0 0
lhand -22.392 2.08488 0
lfingers 7.12502 0 0
lthumb 4.0304 32.0324 0
rclavicle -1.19237e-14 -5.0974e-15 0
rhumerus -37.7712 13.7742 -93.865
rradius 58.917 0 0
rwrist 9.99606 0 0
rhand -10.2573 -18.6085 0
rfingers 7.12502 0 0
rthumb 15.7359 -767.989 0
378
root 6.00548 16.539 -15.3447 9.55154 -20.2212 -6.69712
lfemur -46.4746 21.0797 -14.1557
ltibia 55.4524 0 0
lfoot -8.49887 1.73884 0
ltoes 13.3716 0 0
rfemur -20.8733 -0.872011 31.3609
rtibia 39.8427 0 0
rfoot -22.3918 0.631854 0
rtoes 18.1458 0 0
lowerback 5.08591 2.29971 3.82331
upperback 2.51821 3.22085 0.759727
thorax -0.0869109 1.63253 -1.51663
lowerneck -7.48259 -0.950723 3.5439
upperneck -0.267637 -1.62088 1.89161
head 1.15453 -0.774742 -0.0584776
lclavicle -2.32242e-15 -4.87935e-15 0
lhumerus -39.7462 -22.7798 93.5545
lradius 55.073 0 0
lwrist 17.5673 0 0
lhand -22.3622 1.99434 0
lfingers 7.12502 0 0
lthumb 4.05918 31.9386 0
rclavicle -2.32242e-15 -4.87935e-15 0
rhumerus -37.9668 14.0302 -93.9751
rradius 58.3876 0 0
rwrist 10.1297 0 0
rhand -10.7599 -18.5391 0
rfingers 7.12502 0 0
rthumb 15.2517 -767.957 0
379
root 5.95621 16.5429 -15.2007 9.54319 -20.8765 -6.8271
lfemur -46.2414 20.1137 -13.9394
ltibia 52.4892 0 0
lfoot -8.08989 2.85728 0
ltoes 13.3749 0 0
rfemur -19.9317 -0.463717 31.3962
rtibia 39.4485 0 0
rfoot -22.618 0.618733 0
rtoes 18.1011 0 0
lowerback 4.99316 2.4425 3.91702
upperback 2.47433 3.41131 0.704442
thorax -0.0620885 1.72875 -1.63046
lowerneck -7.36796 -0.887037 3.6871
upperneck -0.141185 -1.54524 1.84803
head 1.17445 -0.735625 -0.0933401
lclavicle 7.55382e-15 -4.37326e-15 0
lhumerus -39.7586 -22.6619 93.3187
lradius 54.8011 0 0
lwrist 17.3402 0 0
lhand -22.1962 2.01352 0
lfingers 7.12502 0 0
lthumb 4.21936 31.9515 0
rclavicle 7.55382e-15 -4.37326e-15 0
rhumerus -38.1913 14.2795 -94.0831
rradius 57.9319 0 0
rwrist 10.2654 0 0
rhand -11.1636 -18.4989 0
rfingers 7.12502 0 0
rthumb 14.8629 -767.946 0
